<svg width="160" height="40" viewBox="0 0 160 40" fill="none" xmlns="http://www.w3.org/2000/svg">
  <rect x="1" y="1" width="38" height="38" rx="12" fill="url(#paint0_linear)"/>
  <rect x="1" y="1" width="38" height="38" rx="12" stroke="white" stroke-opacity="0.2"/>
  <path d="M13 12.5C13 11.6716 13.6716 11 14.5 11H18C18.8284 11 19.5 11.6716 19.5 12.5V27.5C19.5 28.3284 18.8284 29 18 29H14.5C13.6716 29 13 28.3284 13 27.5V12.5Z" fill="white" fill-opacity="0.92"/>
  <path d="M22.5 12.5C22.5 11.6716 23.1716 11 24 11H27.5C28.3284 11 29 11.6716 29 12.5V17.25C29 18.0784 28.3284 18.75 27.5 18.75H24C23.1716 18.75 22.5 19.4216 22.5 20.25V27.5C22.5 28.3284 21.8284 29 21 29H17.5C16.6716 29 16 28.3284 16 27.5V21.25C16 18.3505 18.3505 16 21.25 16H24.25C25.0784 16 25.75 15.3284 25.75 14.5V12.5C25.75 11.6716 25.0784 11 24.25 11H22.5Z" fill="#C7BFFF"/>
  <path d="M57.792 28V11.488H61.504V24.72H69.568V28H57.792ZM76.4375 28.288C72.2935 28.288 69.7015 25.216 69.7015 20.976C69.7015 16.736 72.2935 13.664 76.4375 13.664C80.5575 13.664 83.1495 16.736 83.1495 20.976C83.1495 25.216 80.5575 28.288 76.4375 28.288ZM76.4375 25.24C78.5655 25.24 79.5815 23.568 79.5815 20.976C79.5815 18.384 78.5655 16.712 76.4375 16.712C74.2855 16.712 73.2695 18.384 73.2695 20.976C73.2695 23.568 74.2855 25.24 76.4375 25.24ZM85.8074 28V13.952H89.3754V28H85.8074ZM87.5994 11.968C86.3194 11.968 85.4234 11.168 85.4234 10.032C85.4234 8.872 86.3194 8.072 87.5994 8.072C88.8554 8.072 89.7754 8.872 89.7754 10.032C89.7754 11.168 88.8554 11.968 87.5994 11.968ZM95.8508 28.312C93.1628 28.312 91.6588 26.928 91.6588 24.968C91.6588 22.6 93.4988 21.488 96.4508 21.056L100.043 20.528V20.24C100.043 18.448 99.2428 17.456 97.3548 17.456C95.8508 17.456 94.9788 18.208 94.7388 19.392H91.4428C91.6108 15.992 94.4748 13.664 97.5708 13.664C101.355 13.664 103.491 15.816 103.491 19.768V28H100.043V25.984H99.8508C99.1948 27.368 97.8108 28.312 95.8508 28.312ZM96.8588 25.624C98.8508 25.624 100.043 24.288 100.043 22.256V22.024L97.3308 22.432C95.5388 22.696 94.9068 23.304 94.9068 24.264C94.9068 25.12 95.5868 25.624 96.8588 25.624ZM106.675 28V8.672H110.243V28H106.675ZM113.427 28V13.952H116.995V28H113.427ZM115.219 11.968C113.939 11.968 113.043 11.168 113.043 10.032C113.043 8.872 113.939 8.072 115.219 8.072C116.475 8.072 117.395 8.872 117.395 10.032C117.395 11.168 116.475 11.968 115.219 11.968ZM119.47 28L124.846 13.952H128.822L134.198 28H130.366L129.206 24.696H124.438L123.278 28H119.47ZM125.31 22.048H128.334L126.83 17.664H126.782L125.31 22.048Z" fill="white"/>
  <defs>
    <linearGradient id="paint0_linear" x1="7" y1="4" x2="34" y2="36" gradientUnits="userSpaceOnUse">
      <stop stop-color="#7B61FF"/>
      <stop offset="1" stop-color="#161121"/>
    </linearGradient>
  </defs>
</svg>
